<svg width="41" height="42" viewBox="0 0 41 42" fill="none" xmlns="http://www.w3.org/2000/svg">
<path d="M7.78905 13.6264C9.58474 7.84758 15.7251 4.61861 21.5039 6.41429L27.7948 8.36911C33.5737 10.1648 36.8026 16.3051 35.0069 22.084L29.8008 38.8384L13.0463 33.6322C7.26752 31.8365 4.03855 25.6962 5.83424 19.9173L7.78905 13.6264Z" fill="url(#paint0_linear_1:532)" stroke="url(#paint1_linear_1:532)" stroke-width="3.78521"/>
<path fill-rule="evenodd" clip-rule="evenodd" d="M18.0016 17.4762C17.6977 17.6517 17.5935 18.0403 17.769 18.3442L20.2518 22.6445C20.2763 22.6869 20.3305 22.7015 20.3729 22.677C20.4316 22.6431 20.505 22.6862 20.5059 22.7539C20.5066 22.8036 20.5474 22.8441 20.5971 22.8435L23.7247 22.8019C24.0756 22.7972 24.3563 22.509 24.3516 22.1581C24.3469 21.8072 24.0587 21.5265 23.7078 21.5312L22.5757 21.5462C21.6623 21.5584 20.8136 21.0759 20.3568 20.2847L18.8696 17.7088C18.6941 17.4049 18.3055 17.3008 18.0016 17.4762Z" fill="white"/>
<path d="M23.7247 22.8019L23.7289 23.1173L23.7289 23.1173L23.7247 22.8019ZM23.7078 21.5312L23.712 21.8466L23.712 21.8466L23.7078 21.5312ZM18.8696 17.7088L19.1428 17.5511L18.8696 17.7088ZM20.5971 22.8435L20.6013 23.1589L20.5971 22.8435ZM18.0422 18.1865C17.9538 18.0335 18.0063 17.8378 18.1593 17.7494L17.8439 17.2031C17.3891 17.4656 17.2333 18.0472 17.4958 18.502L18.0422 18.1865ZM20.5249 22.4868L18.0422 18.1865L17.4958 18.502L19.9786 22.8022L20.5249 22.4868ZM23.7205 22.4865L20.5929 22.5281L20.6013 23.1589L23.7289 23.1173L23.7205 22.4865ZM24.0362 22.1623C24.0385 22.339 23.8972 22.4841 23.7205 22.4865L23.7289 23.1173C24.254 23.1103 24.674 22.679 24.667 22.1539L24.0362 22.1623ZM23.712 21.8466C23.8887 21.8442 24.0338 21.9856 24.0362 22.1623L24.667 22.1539C24.66 21.6288 24.2287 21.2088 23.7036 21.2158L23.712 21.8466ZM22.5799 21.8616L23.712 21.8466L23.7036 21.2158L22.5715 21.2308L22.5799 21.8616ZM18.5964 17.8665L20.0836 20.4424L20.63 20.127L19.1428 17.5511L18.5964 17.8665ZM18.1593 17.7494C18.3124 17.661 18.5081 17.7135 18.5964 17.8665L19.1428 17.5511C18.8802 17.0963 18.2987 16.9405 17.8439 17.2031L18.1593 17.7494ZM20.1905 22.7581C20.1935 22.9783 20.3738 23.1619 20.6013 23.1589L20.5929 22.5281C20.721 22.5264 20.8197 22.6289 20.8213 22.7498L20.1905 22.7581ZM22.5715 21.2308C21.7722 21.2414 21.0296 20.8192 20.63 20.127L20.0836 20.4424C20.5975 21.3325 21.5523 21.8753 22.5799 21.8616L22.5715 21.2308ZM20.5306 22.9502C20.3736 23.0408 20.1927 22.9232 20.1905 22.7581L20.8213 22.7498C20.8173 22.4492 20.4895 22.2454 20.2152 22.4038L20.5306 22.9502ZM19.9786 22.8022C20.0902 22.9955 20.3373 23.0617 20.5306 22.9502L20.2152 22.4038C20.3236 22.3412 20.4623 22.3783 20.5249 22.4868L19.9786 22.8022Z" fill="white"/>
<path fill-rule="evenodd" clip-rule="evenodd" d="M23.297 13.2364C23.3965 12.7267 23.9269 12.4214 24.3961 12.6441C26.0334 13.4211 27.4597 14.686 28.4343 16.3741C30.9894 20.7997 29.4731 26.4585 25.0476 29.0136C20.6221 31.5687 14.9632 30.0524 12.4081 25.6269C9.85304 21.2014 11.3693 15.5425 15.7949 12.9874C17.0705 12.2509 18.4487 11.8527 19.8254 11.7649C20.3458 11.7317 20.7255 12.2153 20.6257 12.7271C20.5469 13.1307 20.1907 13.4153 19.7809 13.4497C18.7045 13.5403 17.6306 13.8636 16.6332 14.4394C13.0096 16.5315 11.7681 21.165 13.8602 24.7885C15.9522 28.4121 20.5857 29.6536 24.2093 27.5616C27.8328 25.4695 29.0744 20.8361 26.9823 17.2125C26.2115 15.8775 25.0958 14.8658 23.8127 14.225C23.4434 14.0406 23.218 13.6416 23.297 13.2364Z" fill="white"/>
<path d="M19.8254 11.7649L19.8522 12.1846L19.8254 11.7649ZM23.8127 14.225L23.6248 14.6013L23.8127 14.225ZM19.7809 13.4497L19.8162 13.8688L19.7809 13.4497ZM24.3961 12.6441L24.5765 12.2642L24.3961 12.6441ZM28.7986 16.1638C27.7799 14.3994 26.2883 13.0766 24.5765 12.2642L24.2158 13.0241C25.7784 13.7657 27.1395 14.9725 28.0701 16.5844L28.7986 16.1638ZM25.2579 29.3779C29.8846 26.7066 31.4698 20.7905 28.7986 16.1638L28.0701 16.5844C30.509 20.8088 29.0617 26.2105 24.8373 28.6494L25.2579 29.3779ZM12.0439 25.8372C14.7151 30.4639 20.6312 32.0491 25.2579 29.3779L24.8373 28.6494C20.6129 31.0883 15.2113 29.641 12.7723 25.4166L12.0439 25.8372ZM15.5846 12.6232C10.9579 15.2944 9.37266 21.2105 12.0439 25.8372L12.7723 25.4166C10.3334 21.1922 11.7808 15.7906 16.0051 13.3516L15.5846 12.6232ZM19.7987 11.3452C18.3587 11.437 16.9176 11.8536 15.5846 12.6232L16.0051 13.3516C17.2235 12.6482 18.5386 12.2684 19.8522 12.1846L19.7987 11.3452ZM16.8435 14.8037C17.7862 14.2594 18.8002 13.9543 19.8162 13.8688L19.7457 13.0306C18.6089 13.1263 17.475 13.4678 16.4229 14.0752L16.8435 14.8037ZM14.2244 24.5783C12.2485 21.1558 13.4211 16.7796 16.8435 14.8037L16.4229 14.0752C12.5982 16.2834 11.2877 21.1741 13.4959 24.9988L14.2244 24.5783ZM23.999 27.1973C20.5766 29.1733 16.2003 28.0007 14.2244 24.5783L13.4959 24.9988C15.7041 28.8236 20.5948 30.134 24.4195 27.9258L23.999 27.1973ZM26.6181 17.4228C28.594 20.8452 27.4214 25.2214 23.999 27.1973L24.4195 27.9258C28.2443 25.7176 29.5547 20.8269 27.3465 17.0022L26.6181 17.4228ZM23.6248 14.6013C24.8364 15.2063 25.8898 16.1613 26.6181 17.4228L27.3465 17.0022C26.5333 15.5936 25.3552 14.5252 24.0006 13.8487L23.6248 14.6013ZM19.8522 12.1846C20.0647 12.1711 20.2664 12.3721 20.2129 12.6465L21.0385 12.8076C21.1846 12.0586 20.6269 11.2924 19.7987 11.3452L19.8522 12.1846ZM24.0006 13.8487C23.7791 13.7381 23.6713 13.5143 23.7098 13.317L22.8842 13.1559C22.7646 13.7689 23.1077 14.343 23.6248 14.6013L24.0006 13.8487ZM20.2129 12.6465C20.1745 12.8432 19.9917 13.0099 19.7457 13.0306L19.8162 13.8688C20.3896 13.8206 20.9193 13.4181 21.0385 12.8076L20.2129 12.6465ZM24.5765 12.2642C23.8299 11.9099 23.0299 12.4094 22.8842 13.1559L23.7098 13.317C23.7631 13.044 24.0239 12.933 24.2158 13.0241L24.5765 12.2642Z" fill="white"/>
<defs>
<linearGradient id="paint0_linear_1:532" x1="36.647" y1="9.64155" x2="19.8671" y2="38.1847" gradientUnits="userSpaceOnUse">
<stop offset="0.015625" stop-color="#81F0FF"/>
<stop offset="0.994792" stop-color="#00C2FF"/>
</linearGradient>
<linearGradient id="paint1_linear_1:532" x1="36.647" y1="9.64155" x2="19.8671" y2="38.1847" gradientUnits="userSpaceOnUse">
<stop offset="0.015625" stop-color="#81F0FF"/>
<stop offset="0.994792" stop-color="#00C2FF"/>
</linearGradient>
</defs>
</svg>
